<svg width="25" height="25" viewBox="0 0 25 25" fill="none" xmlns="http://www.w3.org/2000/svg">
<path d="M12.5 2.25C15.7625 2.25 16.1375 2.2625 17.425 2.325C18.6125 2.3875 19.2625 2.575 19.7 2.7375C20.2875 2.95 20.7125 3.2125 21.15 3.65C21.5875 4.0875 21.8625 4.525 22.0625 5.1C22.225 5.5375 22.4125 6.1875 22.475 7.375C22.5375 8.6625 22.55 9.0375 22.55 12.3C22.55 15.5625 22.5375 15.9375 22.475 17.225C22.4125 18.4125 22.225 19.0625 22.0625 19.5C21.85 20.0875 21.5875 20.5125 21.15 20.95C20.7125 21.3875 20.275 21.6625 19.7 21.8625C19.2625 22.025 18.6125 22.2125 17.425 22.275C16.1375 22.3375 15.7625 22.35 12.5 22.35C9.2375 22.35 8.8625 22.3375 7.575 22.275C6.3875 22.2125 5.7375 22.025 5.3 21.8625C4.7125 21.65 4.2875 21.3875 3.85 20.95C3.4125 20.5125 3.1375 20.075 2.9375 19.5C2.775 19.0625 2.5875 18.4125 2.525 17.225C2.4625 15.9375 2.45 15.5625 2.45 12.3C2.45 9.0375 2.4625 8.6625 2.525 7.375C2.5875 6.1875 2.775 5.5375 2.9375 5.1C3.15 4.5125 3.4125 4.0875 3.85 3.65C4.2875 3.2125 4.725 2.9375 5.3 2.7375C5.7375 2.575 6.3875 2.3875 7.575 2.325C8.8625 2.2625 9.2375 2.25 12.5 2.25ZM12.5 0C9.1875 0 8.775 0.0125 7.4625 0.075C6.1625 0.1375 5.2625 0.3375 4.475 0.6375C3.6625 0.95 2.975 1.3625 2.2875 2.05C1.6 2.7375 1.1875 3.425 0.875 4.2375C0.575 5.025 0.375 5.9375 0.3125 7.225C0.25 8.5375 0.2375 8.95 0.2375 12.2625C0.2375 15.575 0.25 15.9875 0.3125 17.3C0.375 18.6 0.575 19.5 0.875 20.2875C1.1875 21.1 1.6 21.7875 2.2875 22.475C2.975 23.1625 3.6625 23.5875 4.475 23.8875C5.2625 24.1875 6.175 24.3875 7.4625 24.45C8.775 24.5125 9.1875 24.525 12.5 24.525C15.8125 24.525 16.225 24.5125 17.5375 24.45C18.8375 24.3875 19.7375 24.1875 20.525 23.8875C21.3375 23.575 22.025 23.1625 22.7125 22.475C23.4 21.7875 23.825 21.1 24.125 20.2875C24.425 19.5 24.625 18.5875 24.6875 17.3C24.75 15.9875 24.7625 15.575 24.7625 12.2625C24.7625 8.95 24.75 8.5375 24.6875 7.225C24.625 5.925 24.425 5.025 24.125 4.2375C23.8125 3.425 23.4 2.7375 22.7125 2.05C22.025 1.3625 21.3375 0.9375 20.525 0.6375C19.7375 0.3375 18.825 0.1375 17.5375 0.075C16.225 0.0125 15.8125 0 12.5 0ZM12.5 5.9875C8.9875 5.9875 6.1375 8.8375 6.1375 12.35C6.1375 15.8625 8.9875 18.7125 12.5 18.7125C16.0125 18.7125 18.8625 15.8625 18.8625 12.35C18.8625 8.8375 16.0125 5.9875 12.5 5.9875ZM12.5 16.4625C10.2375 16.4625 8.3875 14.6125 8.3875 12.35C8.3875 10.0875 10.2375 8.2375 12.5 8.2375C14.7625 8.2375 16.6125 10.0875 16.6125 12.35C16.6125 14.6125 14.7625 16.4625 12.5 16.4625ZM19.1125 4.2125C18.275 4.2125 17.6 4.8875 17.6 5.725C17.6 6.5625 18.275 7.2375 19.1125 7.2375C19.95 7.2375 20.625 6.5625 20.625 5.725C20.625 4.8875 19.95 4.2125 19.1125 4.2125Z" fill="#3f3f3f"/>
</svg>
