<svg width="165" height="58" viewBox="0 0 165 58" fill="none" xmlns="http://www.w3.org/2000/svg">
<path d="M32.763 11.5107H5.08361C2.27827 11.5107 0 13.789 0 16.5944V40.9073C0 43.7126 2.27827 45.9909 5.08361 45.9909H32.763C35.5683 45.9909 37.8466 43.7126 37.8466 40.9073V16.5944C37.8466 13.789 35.5683 11.5107 32.763 11.5107ZM5.13462 19.2127C3.63844 19.2127 2.43129 18.0055 2.43129 16.5093C2.43129 15.0132 3.63844 13.806 5.13462 13.806C6.6308 13.806 7.83795 15.0132 7.83795 16.5093C7.83795 18.0055 6.6308 19.2127 5.13462 19.2127ZM32.3719 38.612C32.3719 39.7511 31.4368 40.6863 30.2977 40.6863H11.1873C10.0482 40.6863 9.1131 39.7511 9.1131 38.612V18.8896C9.1131 17.7505 10.0482 16.8154 11.1873 16.8154H30.2977C31.4368 16.8154 32.3719 17.7505 32.3719 18.8896V38.612Z" fill="#FBAF33"/>
<path d="M45.3828 11.5278H47.202L50.8575 20.1139L54.4449 11.5278H56.2641V24.7044H54.3429V16.4754H54.2919L51.6226 22.8002H50.0074L47.338 16.4754H47.304V24.7044H45.3828V11.5278Z" fill="white"/>
<path d="M61.3289 11.5278H59.3906V24.7044H61.3289V11.5278Z" fill="white"/>
<path d="M66.3253 13.296H62.8398V11.5278H71.7659V13.296H68.2635V24.7044H66.3253V13.296Z" fill="white"/>
<path d="M79.7937 11.5278H77.8555V24.7044H79.7937V11.5278Z" fill="white"/>
<path d="M82.613 11.5278H84.4323L90.213 20.8789H90.247V11.5278H92.1852V24.7044H90.349L84.5853 15.3362H84.5513V24.7044H82.613V11.5278Z" fill="white"/>
<path d="M95.4328 21.5079C96.4529 22.375 97.66 22.8171 99.0542 22.8171C100.72 22.8001 101.554 22.188 101.571 20.9808C101.571 19.9947 101.026 19.4167 99.9043 19.2126C99.3943 19.1446 98.8332 19.0596 98.2211 18.9746C97.116 18.7876 96.2829 18.3625 95.7218 17.7165C95.1267 17.0534 94.8377 16.2373 94.8377 15.2682C94.8377 14.112 95.2118 13.1939 95.9428 12.4798C96.6569 11.7827 97.6771 11.4257 98.9862 11.4087C100.567 11.4427 101.945 11.9018 103.118 12.7689L102.047 14.4011C101.094 13.755 100.04 13.4149 98.8842 13.3809C98.2891 13.3809 97.7961 13.5339 97.388 13.84C96.98 14.163 96.7589 14.6391 96.7419 15.2682C96.7419 15.6422 96.878 15.9992 97.167 16.3053C97.456 16.6113 97.9151 16.8323 98.5442 16.9514C98.9012 17.0194 99.3773 17.0874 99.9723 17.1554C101.162 17.3254 102.047 17.7675 102.625 18.4815C103.186 19.1956 103.475 20.0117 103.475 20.9468C103.407 23.4631 101.928 24.7383 99.0032 24.7893C97.116 24.7893 95.4838 24.1942 94.1406 22.9871L95.4158 21.4909L95.4328 21.5079Z" fill="white"/>
<path d="M108.069 13.296H104.566V11.5278H113.492V13.296H109.99V24.7044H108.069V13.296Z" fill="white"/>
<path d="M117.075 11.5278H115.137V24.7044H117.075V11.5278Z" fill="white"/>
<path d="M122.075 13.296H118.59V11.5278H127.516V13.296H124.014V24.7044H122.075V13.296Z" fill="white"/>
<path d="M128.926 11.5277H130.864V20.0288C130.864 20.9299 131.119 21.61 131.612 22.086C132.088 22.5791 132.7 22.8341 133.465 22.8341C134.23 22.8341 134.842 22.5791 135.336 22.086C135.812 21.61 136.067 20.9299 136.067 20.0288V11.5277H138.005V20.2328C137.988 21.61 137.546 22.7151 136.696 23.5312C135.846 24.3643 134.774 24.7893 133.465 24.8063C132.19 24.8063 131.119 24.3643 130.269 23.5312C129.402 22.7151 128.943 21.627 128.943 20.2328V11.5107L128.926 11.5277Z" fill="white"/>
<path d="M142.987 13.296H139.484V11.5278H148.41V13.296H144.925V24.7044H142.987V13.296Z" fill="white"/>
<path d="M150.078 11.5278H158.222V13.3981H151.999V17.1725H157.304V18.9407H151.999V22.8172H158.222V24.7044H150.078V11.5278Z" fill="white"/>
<path d="M44.9922 39.4281C44.9922 37.898 45.0432 36.8608 45.1282 36.3508C45.2302 35.8237 45.3662 35.4157 45.5533 35.0926C45.8593 34.4805 46.3524 33.9535 47.0324 33.4774C47.6955 33.0014 48.5456 32.7463 49.5487 32.7463C50.5689 32.7463 51.402 33.0014 52.082 33.4944C52.7451 33.9705 53.2382 34.5146 53.5272 35.1266C53.7482 35.4497 53.8843 35.8577 53.9693 36.3848C54.0373 36.8948 54.0883 37.932 54.0883 39.4621C54.0883 40.9923 54.0543 41.9785 53.9693 42.5225C53.8843 43.0496 53.7312 43.4746 53.5272 43.7977C53.2212 44.4097 52.7451 44.9368 52.082 45.4129C51.402 45.8889 50.5689 46.144 49.5487 46.178C48.5456 46.161 47.7125 45.9059 47.0324 45.4129C46.3524 44.9538 45.8593 44.4097 45.5533 43.7977C45.4682 43.5936 45.3832 43.4066 45.2982 43.2366C45.2302 43.0496 45.1622 42.8116 45.1282 42.5395C45.0432 42.0125 44.9922 40.9923 44.9922 39.4791M46.9134 39.4281C46.9134 40.7203 46.9644 41.6044 47.0494 42.0635C47.1344 42.5225 47.3045 42.8966 47.5425 43.1686C47.7465 43.4406 48.0186 43.6617 48.3416 43.8317C48.6646 44.0357 49.0557 44.1377 49.5147 44.1377C49.9738 44.1377 50.3818 44.0357 50.7219 43.8317C51.0449 43.6617 51.3 43.4406 51.487 43.1686C51.742 42.8796 51.912 42.5225 51.997 42.0635C52.082 41.6044 52.133 40.7203 52.133 39.4281C52.133 38.136 52.082 37.2519 51.997 36.7758C51.895 36.3338 51.725 35.9597 51.487 35.6877C51.3 35.4157 51.0279 35.1946 50.7219 35.0076C50.3818 34.8376 49.9908 34.7356 49.5147 34.7186C49.0557 34.7186 48.6646 34.8206 48.3416 35.0076C48.0016 35.1946 47.7465 35.4157 47.5425 35.6877C47.2875 35.9767 47.1174 36.3338 47.0494 36.7758C46.9644 37.2519 46.9134 38.136 46.9134 39.4281Z" fill="white"/>
<path d="M56.707 32.8484H64.851V34.7186H58.6283V38.6121H63.9499V40.3803H58.6283V46.008H56.707V32.8484Z" fill="white"/>
<path d="M71.0703 32.8483H75.5419C77.2761 32.8483 78.5682 33.5964 79.4353 35.0756C79.7414 35.5686 79.9454 36.0957 80.0134 36.6228C80.0814 37.1668 80.1154 38.1019 80.1154 39.4281C80.1154 40.8393 80.0644 41.8254 79.9624 42.3865C79.9114 42.6755 79.8434 42.9305 79.7584 43.1515C79.6563 43.3726 79.5373 43.5936 79.4013 43.8316C79.0273 44.4437 78.5002 44.9708 77.8371 45.3618C77.174 45.7869 76.375 46.0079 75.4058 46.0079H71.0703V32.8313V32.8483ZM73.0085 44.1377H75.3208C76.409 44.1377 77.191 43.7466 77.6841 42.9815C77.9051 42.6925 78.0412 42.3354 78.0922 41.9104C78.1432 41.4853 78.1772 40.6862 78.1772 39.4961C78.1772 38.306 78.1432 37.5239 78.0922 37.0308C78.0242 36.5377 77.8541 36.1297 77.5991 35.8237C77.055 35.0586 76.3069 34.6845 75.3208 34.7015H73.0085V44.1207V44.1377Z" fill="white"/>
<path d="M82.7344 32.8484H90.8784V34.7186H84.6556V38.4931H89.9602V40.2613H84.6556V44.1377H90.8784V46.008H82.7344V32.8484Z" fill="white"/>
<path d="M93.1736 42.8285C94.1937 43.6956 95.4009 44.1376 96.795 44.1376C98.4612 44.1206 99.2943 43.5085 99.3113 42.3014C99.3113 41.3153 98.7673 40.7372 97.6451 40.5332C97.1351 40.4652 96.574 40.3802 95.9619 40.2952C94.8568 40.1081 94.0237 39.6831 93.4626 39.037C92.8676 38.3739 92.5785 37.5578 92.5785 36.5887C92.5785 35.4326 92.9526 34.5145 93.6837 33.8004C94.3977 33.1033 95.4179 32.7463 96.727 32.7292C98.3082 32.7633 99.6854 33.2223 100.859 34.0894L99.7874 35.7216C98.8353 35.0755 97.7812 34.7355 96.625 34.7015C96.0299 34.7015 95.5369 34.8545 95.1458 35.1605C94.7378 35.4836 94.5168 35.9596 94.4998 36.5887C94.4998 36.9628 94.6358 37.3028 94.9248 37.6258C95.2138 37.9319 95.6729 38.1529 96.302 38.2719C96.659 38.3399 97.1351 38.4079 97.7301 38.4759C98.9203 38.646 99.8044 39.088 100.382 39.8021C100.944 40.5162 101.233 41.3323 101.233 42.2674C101.165 44.7837 99.6684 46.0589 96.761 46.1099C94.8738 46.1099 93.2416 45.5148 91.8984 44.3076L93.1736 42.8115V42.8285Z" fill="white"/>
<path d="M105.567 32.8484H103.629V46.025H105.567V32.8484Z" fill="white"/>
<path d="M112.541 38.7649H117.08V41.4512C117.063 42.7604 116.621 43.8655 115.771 44.7666C114.921 45.6507 113.833 46.1098 112.541 46.1268C111.538 46.1098 110.705 45.8547 110.025 45.3617C109.345 44.9026 108.851 44.3586 108.545 43.7465C108.46 43.5425 108.375 43.3554 108.29 43.1854C108.222 42.9984 108.154 42.7604 108.12 42.4883C108.035 41.9613 107.984 40.9412 107.984 39.428C107.984 37.9148 108.035 36.8777 108.12 36.3506C108.205 35.8405 108.358 35.4155 108.545 35.0924C108.851 34.4804 109.345 33.9363 110.025 33.4602C110.688 32.9842 111.538 32.7292 112.541 32.7122C113.765 32.7122 114.768 33.1032 115.55 33.8343C116.332 34.5824 116.808 35.5005 117.012 36.6056H114.972C114.819 36.0786 114.53 35.6195 114.105 35.2455C113.68 34.8884 113.153 34.7014 112.524 34.6844C112.065 34.6844 111.674 34.7864 111.351 34.9564C111.011 35.1435 110.756 35.3645 110.552 35.6365C110.297 35.9255 110.127 36.2826 110.059 36.7246C109.957 37.2007 109.923 38.0848 109.923 39.377C109.923 40.6691 109.974 41.5532 110.059 42.0123C110.144 42.4713 110.314 42.8454 110.552 43.1174C110.756 43.3894 111.028 43.6105 111.351 43.7805C111.674 43.9845 112.065 44.0865 112.524 44.0865C113.272 44.0865 113.901 43.8145 114.394 43.2874C114.887 42.7774 115.142 42.1143 115.142 41.2812V40.5841H112.541V38.7139V38.7649Z" fill="white"/>
<path d="M119.68 32.8484H121.499L127.28 42.1995H127.314V32.8484H129.252V46.008H127.416L121.652 36.6568H121.618V46.008H119.68V32.8484Z" fill="white"/>
</svg>
