<svg width="26" height="25" viewBox="0 0 26 25" fill="none" xmlns="http://www.w3.org/2000/svg">
<path d="M20.8167 1.5H4.18333C2.7 1.5 1.5 2.7 1.5 4.18333V20.8167C1.5 22.3 2.7 23.5 4.18333 23.5H20.8167C22.3 23.5 23.5 22.3 23.5 20.8167V4.18333C23.5 2.7 22.3 1.5 20.8167 1.5ZM8.16667 20.1667H5.16667V9.83333H8.16667V20.1667ZM6.66667 8.5C5.75 8.5 5 7.75 5 6.83333C5 5.91667 5.75 5.16667 6.66667 5.16667C7.58333 5.16667 8.33333 5.91667 8.33333 6.83333C8.33333 7.75 7.58333 8.5 6.66667 8.5ZM20.1667 20.1667H17.1667V14.8333C17.1667 13.4167 16.4167 12.8333 15.4167 12.8333C14.3333 12.8333 13.3333 13.6667 13.3333 14.9167V20.1667H10.3333V9.83333H13.25V11.1667C13.5833 10.4167 14.75 9.5 16.3333 9.5C18.1667 9.5 20.1667 10.5833 20.1667 13.9167V20.1667Z" fill="#333333"/>
</svg>
