<svg width="42" height="42" viewBox="0 0 42 42" fill="none" xmlns="http://www.w3.org/2000/svg">
<path d="M21 0C9.40202 0 0 9.40202 0 21C0 32.598 9.40202 42 21 42C32.598 42 42 32.598 42 21C42 9.40202 32.598 0 21 0ZM21 38.5C11.3354 38.5 3.5 30.6646 3.5 21C3.5 11.3354 11.3354 3.5 21 3.5C30.6646 3.5 38.5 11.3354 38.5 21C38.5 30.6646 30.6646 38.5 21 38.5Z" fill="#e49514"/>
<path d="M31 14H11C10.4477 14 10 14.4477 10 15V16C10 16.5523 10.4477 17 11 17H31C31.5523 17 32 16.5523 32 16V15C32 14.4477 31.5523 14 31 14Z" fill="#e49514"/>
<path d="M31 20H11C10.4477 20 10 20.4477 10 21V22C10 22.5523 10.4477 23 11 23H31C31.5523 23 32 22.5523 32 22V21C32 20.4477 31.5523 20 31 20Z" fill="#e49514"/>
<path d="M31 26H11C10.4477 26 10 26.4477 10 27V28C10 28.5523 10.4477 29 11 29H31C31.5523 29 32 28.5523 32 28V27C32 26.4477 31.5523 26 31 26Z" fill="#e49514"/>
</svg>
