<svg width="29" height="23" viewBox="0 0 29 23" fill="none" xmlns="http://www.w3.org/2000/svg">
<path d="M22.4 5C22.4 5.2 22.4 5.4 22.4 5.5C22.4 11.8 17.6 19 8.8 19C5.6 19 2.6 18.1 0 16.4C0.4 16.5 0.9 16.5 1.3 16.5C4 16.5 6.5 15.6 8.4 14C5.9 14 3.8 12.3 3.1 10C3.4 10.1 3.8 10.1 4.1 10.1C4.6 10.1 5.1 10 5.5 9.9C2.9 9.4 0.9 7.1 0.9 4.3V4.2C1.7 4.7 2.6 5 3.6 5C2 3.9 0.9 2.1 0.9 0.1C0.9 -0.9 1.2 -1.8 1.6 -2.5C4.4 0.9 8.5 3.2 13.1 3.4C13 3 13 2.6 13 2.2C13 -0.9 15.6 -3.5 18.7 -3.5C20.3 -3.5 21.8 -2.8 22.8 -1.7C24.1 -2 25.3 -2.5 26.4 -3.1C26 -1.8 25.1 -0.6 23.9 0.1C25 0 26.1 -0.3 27 -0.8C26.4 0.3 25.5 1.2 24.4 1.9V5H22.4Z" fill="#333333"/>
</svg>
